<?xml version="1.0" standalone="no"?>
<!DOCTYPE svg PUBLIC "-//W3C//DTD SVG 20010904//EN"
 "http://www.w3.org/TR/2001/REC-SVG-20010904/DTD/svg10.dtd">
<svg version="1.0" xmlns="http://www.w3.org/2000/svg"
 width="512.000000pt" height="512.000000pt" viewBox="0 0 512.000000 512.000000"
 preserveAspectRatio="xMidYMid meet">

<g transform="translate(0.000000,512.000000) scale(0.100000,-0.100000)"
fill="#000000" stroke="none">
<path d="M2336 4049 c-524 -55 -959 -315 -1194 -714 -108 -184 -162 -396 -162
-640 0 -175 -50 -304 -160 -415 -118 -119 -246 -166 -430 -157 -80 3 -123 11
-180 31 -133 48 -169 47 -196 -6 -13 -26 -16 -50 -11 -119 26 -399 319 -728
715 -805 90 -17 247 -18 328 -2 32 6 111 11 174 11 130 -1 205 -20 365 -91
148 -65 207 -77 390 -76 186 0 247 13 411 87 147 66 208 80 349 80 144 0 201
-13 361 -84 160 -71 270 -92 439 -86 151 6 238 26 372 86 136 62 228 83 358
83 134 1 205 -16 364 -84 129 -56 261 -88 364 -88 63 0 71 2 99 31 l31 30 -7
103 c-31 482 -239 870 -537 1005 -103 46 -187 63 -323 63 -149 0 -255 -23
-393 -86 -160 -73 -197 -81 -368 -81 -142 0 -155 2 -237 31 -313 112 -498 343
-515 644 -6 115 7 195 47 277 54 110 170 193 269 193 48 0 144 -55 198 -113
28 -31 63 -59 78 -63 115 -29 220 225 171 415 -41 160 -173 309 -366 415 -93
50 -257 102 -381 120 -113 17 -292 19 -423 5z m457 -190 c238 -48 440 -178
517 -332 24 -48 30 -73 30 -124 0 -34 -2 -63 -4 -63 -2 0 -29 16 -61 35 -107
64 -137 70 -360 70 -215 0 -321 -12 -473 -51 -376 -98 -597 -328 -643 -670
-48 -361 165 -700 567 -902 142 -71 373 -142 464 -142 71 0 107 94 56 145 -13
13 -41 27 -62 30 -157 27 -348 98 -481 180 -102 64 -248 209 -297 296 -139
251 -81 571 139 778 111 103 282 172 467 187 l80 7 -37 -48 c-95 -125 -129
-237 -128 -420 1 -155 21 -244 87 -380 88 -183 222 -314 420 -410 166 -81 238
-98 426 -98 181 0 252 15 409 87 124 57 194 76 311 82 398 24 634 -253 715
-834 l6 -44 -43 7 c-60 10 -138 37 -243 83 -145 63 -216 77 -395 77 -178 -1
-241 -14 -417 -91 -136 -59 -205 -74 -343 -74 -140 0 -213 16 -342 75 -168 77
-227 90 -423 90 -197 0 -237 -9 -411 -86 -145 -64 -213 -79 -355 -79 -144 0
-231 21 -360 85 -188 94 -320 194 -383 290 -46 68 -65 121 -76 210 -7 57 -14
74 -35 92 -58 50 -145 5 -145 -74 1 -114 62 -275 142 -374 l45 -55 -136 -18
c-114 -15 -149 -16 -220 -6 -240 33 -450 179 -549 382 -40 83 -71 182 -60 194
4 3 33 0 65 -7 86 -19 284 -17 363 4 202 55 367 191 461 382 57 118 70 177 79
380 9 220 29 306 105 460 172 350 516 591 955 669 119 21 135 23 313 24 126 2
180 -2 260 -19z"/>
<path d="M1977 3600 c-53 -42 -40 -124 23 -150 63 -26 130 33 115 102 -8 35
-49 68 -85 68 -15 0 -39 -9 -53 -20z"/>
<path d="M1604 3356 c-177 -180 -261 -366 -267 -590 -2 -85 -1 -88 26 -112 38
-32 90 -32 122 1 21 20 25 34 25 79 0 82 26 202 59 272 41 87 80 142 172 240
88 93 95 114 53 163 -21 25 -33 31 -66 31 -38 0 -47 -6 -124 -84z"/>
<path d="M3295 2885 c-54 -53 -16 -145 60 -145 49 0 85 36 85 85 0 76 -92 114
-145 60z"/>
<path d="M3649 2531 c-36 -37 -38 -79 -5 -117 62 -73 179 2 142 91 -26 62 -89
74 -137 26z"/>
<path d="M205 2445 c-54 -53 -16 -145 60 -145 49 0 85 36 85 85 0 49 -36 85
-85 85 -25 0 -44 -8 -60 -25z"/>
</g>
</svg>
